<?xml version="1.0" encoding="utf-8"?>
<!-- Generator: Adobe Illustrator 24.0.0, SVG Export Plug-In . SVG Version: 6.00 Build 0)  -->
<svg version="1.1" id="图层_1" xmlns="http://www.w3.org/2000/svg" xmlns:xlink="http://www.w3.org/1999/xlink" x="0px" y="0px"
	 viewBox="0 0 1024 1024" style="enable-background:new 0 0 1024 1024;" xml:space="preserve">
<style type="text/css">
	.st0{fill:#333333;}
</style>
<path class="st0" d="M544.3,907.6l312.9-180.8c13.9-7,20.9-20.9,20.9-34.8V330.6L565.1,511.4c-7,7-13.9,7-20.9,7V907.6L544.3,907.6z
	 M898.9,219.4c34.8,20.9,55.6,55.6,55.6,90.4v382.4c0,41.7-20.9,76.5-55.6,90.4L565.1,970.2c-34.8,20.9-76.5,20.9-104.3,0
	L127.1,782.5c-34.8-20.9-55.6-55.6-55.6-90.4V309.7c0-41.7,20.9-76.5,55.6-90.4L460.9,31.6c34.8-20.9,76.5-20.9,104.3,0L898.9,219.4
	L898.9,219.4z"/>
</svg>
